<?xml version="1.0" encoding="utf-8"?>
<!-- Generator: Adobe Illustrator 18.1.1, SVG Export Plug-In . SVG Version: 6.00 Build 0)  -->
<svg version="1.1" id="Layer_1" xmlns="http://www.w3.org/2000/svg" xmlns:xlink="http://www.w3.org/1999/xlink" x="0px" y="0px"
	 viewBox="0 0 679.8 116.8" enable-background="new 0 0 679.8 116.8" xml:space="preserve">
<g>
	<g>
		<path fill="#DF2328" d="M290.9,55.9h-0.3c0.2-0.7,0.3-1.5,0.4-2.3c1.3-0.7,2.3-1.2,3.3-1.4c0.9-0.2,1.8-0.3,2.6-0.3
			c1.5,0,2.7,0.4,3.6,1.1c1,0.7,1.5,1.7,1.5,2.8c0,0.8-0.2,2.4-0.7,4.9c-0.5,2.5-0.7,4.2-0.7,5.1c0,1.1,0.4,1.6,1.1,1.6
			c0.3,0,0.7-0.1,1-0.3l0.3,0.8c-0.9,0.7-1.8,1-2.6,1c-0.6,0-1.2-0.2-1.6-0.5c-0.4-0.3-0.7-0.9-0.8-1.7c-1.2,1-2.2,1.7-3,2.1
			c-0.8,0.3-1.6,0.5-2.4,0.5c-1.3,0-2.4-0.3-3.3-1c-0.9-0.7-1.4-1.7-1.4-3c0-1.2,0.4-2.3,1.3-3.2c0.8-1,2.8-1.8,5.8-2.4
			c1.3-0.3,2.3-0.5,2.9-0.7c0.7-0.2,1-0.4,1.2-0.6c0.1-0.1,0.1-0.4,0.2-0.8c0.1-0.4,0.1-0.8,0.1-1.2c0-0.8-0.3-1.5-1-2.1
			c-0.7-0.5-1.5-0.8-2.5-0.8c-1,0-1.9,0.2-2.7,0.7C292.3,54.6,291.6,55.2,290.9,55.9z M298.9,60c-3.6,0.8-5.9,1.5-6.7,2.3
			c-0.9,0.7-1.3,1.6-1.3,2.7c0,0.8,0.3,1.5,0.8,2c0.5,0.5,1.2,0.7,2,0.7c0.7,0,1.4-0.2,2.1-0.5c0.7-0.4,1.5-1,2.3-1.9L298.9,60z"/>
		<path fill="#DF2328" d="M316.6,68.9c0.4-1,0.7-2.1,1-3.3c-0.9,1.3-1.9,2.3-2.8,2.8c-0.9,0.5-1.9,0.8-3,0.8c-1.7,0-3.2-0.7-4.5-2
			c-1.3-1.3-1.9-3.1-1.9-5.3c0-2.5,0.8-4.8,2.4-7c1.6-2.1,3.7-3.2,6.2-3.2c1.3,0,2.3,0.3,3.2,0.9c0.9,0.6,1.6,1.5,2,2.7l0.9-6.1
			c0.5-3,0.7-5.2,0.8-6.6c0.7,0.1,1.2,0.1,1.6,0.1c0.3,0,0.8,0,1.5-0.1c-0.3,1-0.7,2.7-1.1,5.1c-0.4,2.4-0.9,5-1.4,7.9l-1,5.9
			c-0.3,1.8-0.5,3.3-0.7,4.5c-0.1,1.2-0.2,2.1-0.2,2.7c-0.7-0.1-1.2-0.1-1.5-0.1S317.3,68.9,316.6,68.9z M308.3,62.2
			c0,1.4,0.3,2.7,1,3.8c0.7,1.1,1.7,1.7,3.1,1.7c1.9,0,3.4-1,4.5-2.9c1.1-1.9,1.6-4.2,1.6-6.9c0-1.4-0.4-2.6-1.1-3.4
			c-0.7-0.8-1.7-1.2-3-1.2c-1.8,0-3.3,0.9-4.5,2.7C308.8,57.8,308.3,59.9,308.3,62.2z"/>
		<path fill="#DF2328" d="M324.3,52.2c0.7,0.1,1.3,0.1,1.6,0.1c0.4,0,0.9,0,1.6-0.1c0.3,2.2,1.4,6.7,3.2,13.5
			c3.7-6.8,5.9-11.3,6.7-13.5c0.6,0.1,1,0.1,1.3,0.1c0.2,0,0.7,0,1.3-0.1c-1.1,1.8-2.7,4.6-4.8,8.3c-2.1,3.7-3.6,6.5-4.3,8.4
			c-0.4-0.1-0.8-0.1-1-0.1c-0.2,0-0.5,0-0.9,0.1c-0.2-1.1-0.9-3.7-1.9-7.8C325.9,57,325,54,324.3,52.2z"/>
		<path fill="#DF2328" d="M343.2,55.9h-0.3c0.2-0.7,0.3-1.5,0.4-2.3c1.3-0.7,2.3-1.2,3.3-1.4c0.9-0.2,1.8-0.3,2.6-0.3
			c1.5,0,2.7,0.4,3.6,1.1c1,0.7,1.5,1.7,1.5,2.8c0,0.8-0.2,2.4-0.7,4.9c-0.5,2.5-0.7,4.2-0.7,5.1c0,1.1,0.4,1.6,1.1,1.6
			c0.3,0,0.7-0.1,1-0.3l0.3,0.8c-0.9,0.7-1.8,1-2.6,1c-0.6,0-1.2-0.2-1.6-0.5c-0.4-0.3-0.7-0.9-0.8-1.7c-1.2,1-2.2,1.7-3,2.1
			c-0.8,0.3-1.6,0.5-2.4,0.5c-1.3,0-2.4-0.3-3.3-1c-0.9-0.7-1.4-1.7-1.4-3c0-1.2,0.4-2.3,1.3-3.2c0.8-1,2.8-1.8,5.8-2.4
			c1.3-0.3,2.3-0.5,2.9-0.7c0.7-0.2,1-0.4,1.2-0.6c0.1-0.1,0.1-0.4,0.2-0.8c0.1-0.4,0.1-0.8,0.1-1.2c0-0.8-0.3-1.5-1-2.1
			c-0.7-0.5-1.5-0.8-2.5-0.8c-1,0-1.9,0.2-2.7,0.7C344.5,54.6,343.8,55.2,343.2,55.9z M351.1,60c-3.6,0.8-5.9,1.5-6.7,2.3
			c-0.9,0.7-1.3,1.6-1.3,2.7c0,0.8,0.3,1.5,0.8,2c0.5,0.5,1.2,0.7,2,0.7c0.7,0,1.4-0.2,2.1-0.5c0.7-0.4,1.5-1,2.3-1.9L351.1,60z"/>
		<path fill="#DF2328" d="M357.2,68.9c0.4-1.1,1-3.9,1.7-8.2c0.8-4.3,1.1-7.2,1.1-8.6c0.7,0.1,1.2,0.1,1.5,0.1c0.4,0,0.9,0,1.5-0.1
			l-0.8,2.5c1-1,2-1.8,2.9-2.2c1-0.4,2-0.6,3-0.6c1.6,0,2.8,0.4,3.7,1.3c0.9,0.9,1.3,1.9,1.3,3.1c0,1-0.3,3-0.9,6.3
			c-0.6,3.2-0.9,5.3-0.9,6.4c-0.7-0.1-1.2-0.1-1.6-0.1c-0.4,0-0.9,0-1.6,0.1c0.3-0.8,0.7-2.7,1.3-5.7c0.6-3,0.9-5.2,0.9-6.6
			c0-0.9-0.3-1.7-0.9-2.3c-0.6-0.6-1.4-0.9-2.5-0.9c-3,0-4.8,2.4-5.6,7.1c-0.7,4.7-1.1,7.5-1.1,8.4c-0.7-0.1-1.2-0.1-1.5-0.1
			C358.5,68.8,357.9,68.9,357.2,68.9z"/>
		<path fill="#DF2328" d="M389.9,55.4c-1.2-1.5-2.6-2.3-4.4-2.3c-1.9,0-3.5,0.8-4.8,2.5c-1.3,1.6-1.9,3.6-1.9,5.9
			c0,2,0.5,3.6,1.6,4.7c1,1.1,2.3,1.7,3.9,1.7c0.8,0,1.6-0.2,2.6-0.5c0.9-0.4,1.8-0.9,2.5-1.7h0.4c-0.2,0.7-0.3,1.4-0.4,2.1
			c-1.9,1-3.7,1.5-5.3,1.5c-2.1,0-4-0.6-5.6-1.9c-1.6-1.3-2.4-3.2-2.4-5.8c0-2.6,0.9-4.9,2.6-6.9c1.8-1.9,4.2-2.9,7.5-2.9
			c0.9,0,1.7,0.1,2.4,0.2c0.8,0.1,1.7,0.4,2.9,0.9c-0.4,0.8-0.7,1.6-0.8,2.5H389.9z"/>
		<path fill="#DF2328" d="M395.7,52.2c0.7,0.1,1.2,0.1,1.6,0.1c0.3,0,0.6,0,0.9,0c0.3,0,0.6,0,0.7-0.1c-0.4,1.4-1,3.9-1.8,7.8
			s-1.2,6.8-1.3,9c-0.8-0.1-1.4-0.1-1.7-0.1c-0.3,0-0.5,0-0.8,0c-0.3,0-0.5,0-0.6,0.1c0.5-1.7,1.1-4.5,1.8-8.6
			C395.3,56.2,395.7,53.5,395.7,52.2z M396.5,46.2c0-0.5,0.2-0.9,0.5-1.2c0.3-0.3,0.8-0.5,1.3-0.5c0.5,0,0.9,0.2,1.2,0.5
			c0.3,0.3,0.5,0.8,0.5,1.2s-0.2,0.9-0.5,1.2c-0.3,0.3-0.8,0.5-1.2,0.5c-0.5,0-0.9-0.2-1.2-0.5C396.7,47.1,396.5,46.7,396.5,46.2z"
			/>
		<path fill="#DF2328" d="M401,68.9c0.4-1.1,1-3.9,1.7-8.2c0.8-4.3,1.1-7.2,1.1-8.6c0.7,0.1,1.2,0.1,1.5,0.1c0.4,0,0.9,0,1.5-0.1
			l-0.8,2.5c1-1,2-1.8,2.9-2.2c1-0.4,2-0.6,3-0.6c1.6,0,2.8,0.4,3.7,1.3c0.9,0.9,1.3,1.9,1.3,3.1c0,1-0.3,3-0.9,6.3
			c-0.6,3.2-0.9,5.3-0.9,6.4c-0.7-0.1-1.2-0.1-1.6-0.1c-0.4,0-0.9,0-1.6,0.1c0.3-0.8,0.7-2.7,1.3-5.7c0.6-3,0.9-5.2,0.9-6.6
			c0-0.9-0.3-1.7-0.9-2.3c-0.6-0.6-1.4-0.9-2.5-0.9c-3,0-4.8,2.4-5.6,7.1c-0.7,4.7-1.1,7.5-1.1,8.4c-0.7-0.1-1.2-0.1-1.5-0.1
			C402.3,68.8,401.7,68.9,401,68.9z"/>
		<path fill="#DF2328" d="M423.3,62.3c-1.6-1-2.3-2.4-2.3-4.1c0-1.6,0.6-3,1.9-4.3c1.2-1.3,3.1-1.9,5.4-1.9c0.7,0,1.6,0,2.5,0.1
			c1,0.1,1.8,0.1,2.6,0.1c1,0,2-0.1,3-0.3v1.8c-0.8-0.2-1.7-0.3-2.6-0.3h-0.7v0c0.9,1.2,1.4,2.2,1.4,3.2c0,1.6-0.7,3.1-2,4.4
			c-1.3,1.3-3.1,1.9-5.4,1.9h-1.3c-0.1,0-0.4,0-1.1,0c-0.5,0-0.8,0.1-1.1,0.4c-0.2,0.2-0.4,0.5-0.4,0.8c0,0.6,0.3,0.9,0.8,1.1
			c0.5,0.1,1.8,0.2,3.7,0.2c2.4,0,4.1,0.3,5,0.9c0.9,0.6,1.3,1.5,1.3,2.7c0,1.7-0.8,3.3-2.4,4.8c-1.6,1.5-3.6,2.2-6.2,2.2
			c-2.1,0-3.7-0.4-4.8-1.2c-1.1-0.8-1.6-1.9-1.6-3.1c0-1.8,1.2-3.2,3.6-4.3c-1.2-0.5-1.8-1.2-1.8-2.1
			C420.7,64.2,421.6,63.2,423.3,62.3z M423.8,68c-0.9,0.2-1.5,0.7-2,1.2c-0.4,0.6-0.7,1.3-0.7,2c0,0.9,0.4,1.7,1.1,2.4
			c0.8,0.7,1.9,1,3.3,1c1.6,0,2.9-0.4,4-1.3c1.1-0.8,1.6-1.9,1.6-3.1c0-0.9-0.4-1.5-1.1-2c-0.7-0.5-1.8-0.7-3.4-0.7
			c-0.5,0-1.1,0-1.5,0.1C424.8,67.8,424.3,67.9,423.8,68z M423.9,58.1c0,1.1,0.3,1.9,0.9,2.5c0.6,0.6,1.4,0.9,2.4,0.9
			c1.3,0,2.3-0.5,3.1-1.5c0.8-1,1.2-2.2,1.2-3.6c0-0.9-0.3-1.7-0.8-2.3c-0.5-0.7-1.3-1-2.4-1c-1.2,0-2.2,0.5-3.1,1.4
			C424.3,55.6,423.9,56.7,423.9,58.1z"/>
		<path fill="#DF2328" d="M447.9,53.8v-0.2c-0.7,0-1.2,0-1.5,0c-0.3,0-0.6,0.1-0.9,0.2c0.2-0.5,0.3-1.2,0.3-1.9
			c0.4,0.2,0.7,0.2,0.9,0.3c0.2,0,0.7,0,1.4,0v0c0.2-1.1,0.3-2.2,0.3-3.3l3.3-1.3c-0.2,0.5-0.4,1.2-0.6,2.2
			c-0.2,0.9-0.4,1.7-0.5,2.4v0h0.9c0.7,0,1.3,0,1.8-0.1c0.5-0.1,0.8-0.1,0.9-0.2c-0.2,0.5-0.2,0.8-0.2,1.1c0,0.2,0,0.5,0.1,0.8
			c-0.2,0-0.5-0.1-0.8-0.2c-0.3-0.1-0.7-0.1-1.2-0.1h-1.6v0c-0.3,1.7-0.7,3.8-1.1,6.3c-0.4,2.5-0.7,4.1-0.7,4.8c0,1,0.3,1.7,0.8,2.2
			c0.5,0.5,1.1,0.7,1.7,0.7c0.6,0,1.4-0.3,2.3-0.8v1.3c-1.1,0.8-2.2,1.1-3.3,1.1c-1.2,0-2.2-0.3-2.9-1c-0.8-0.7-1.1-1.6-1.1-2.9
			c0-1.1,0.3-3.1,0.8-6C447.4,56.5,447.7,54.6,447.9,53.8z"/>
		<path fill="#DF2328" d="M455,68.9c0.4-1.3,1.2-5.6,2.5-12.9c1.3-7.3,2-11.7,2-13.3c0.7,0.1,1.2,0.1,1.5,0.1c0.4,0,0.9,0,1.6-0.1
			c-0.5,1.4-1.3,5.4-2.4,11.9c0.9-0.9,1.8-1.6,2.7-2.1c0.9-0.5,1.9-0.7,3-0.7c1.5,0,2.8,0.4,3.7,1.3c0.9,0.8,1.4,1.9,1.4,3.2
			c0,0.8-0.3,2.7-0.9,5.6c-0.6,2.9-0.9,5.2-0.9,7c-0.7-0.1-1.3-0.1-1.6-0.1c-0.4,0-0.9,0-1.6,0.1c0.4-1.5,0.9-3.7,1.4-6.7
			c0.5-3,0.8-4.9,0.8-5.6c0-1-0.3-1.8-1-2.4c-0.7-0.6-1.5-0.8-2.4-0.8c-1.1,0-2.1,0.4-3.1,1.1c-0.9,0.7-1.6,1.9-1.9,3.5
			c-0.3,1.3-0.6,3.2-1,5.5c-0.4,2.3-0.6,4.1-0.6,5.3c-0.7-0.1-1.2-0.1-1.6-0.1C456.2,68.8,455.7,68.9,455,68.9z"/>
		<path fill="#DF2328" d="M476.9,60.6c-0.1,0.9-0.2,1.6-0.2,2.1c0,1.5,0.5,2.8,1.5,3.8c1,1,2.2,1.5,3.8,1.5c0.8,0,1.6-0.2,2.4-0.5
			c0.9-0.3,1.6-0.9,2.3-1.8h0.4c-0.2,0.7-0.4,1.4-0.4,2.1c-1.9,1-3.7,1.5-5.4,1.5c-2.1,0-3.8-0.6-5.3-1.9c-1.4-1.3-2.2-3.2-2.2-5.7
			c0-2.7,0.8-5,2.3-6.9c1.6-1.9,3.7-2.9,6.4-2.9c1.9,0,3.4,0.5,4.6,1.6c1.2,1.1,1.7,2.5,1.7,4.3c0,1-0.1,2-0.3,3
			c-1.7-0.2-3.1-0.3-4.3-0.3H476.9z M477.1,59.2h8.8c0.1-0.8,0.2-1.4,0.2-2c0-1-0.3-1.9-1-2.8c-0.6-0.8-1.5-1.3-2.7-1.3
			c-1.2,0-2.4,0.5-3.3,1.6C478,55.8,477.4,57.3,477.1,59.2z"/>
		<path fill="#DF2328" d="M500.2,52.2c0.7,0.1,1.2,0.1,1.6,0.1c0.4,0,0.9,0,1.6-0.1c0,0.8,0.3,2.8,0.8,5.8c0.5,3,1,5.4,1.5,7.2
			c2.8-4.6,5-8.9,6.7-13c0.4,0.1,0.7,0.1,1,0.1c0.2,0,0.5,0,1-0.1c0.2,2,1,6.4,2.5,13.2c2.8-4.6,5.1-9,6.8-13.2
			c0.6,0.1,1,0.1,1.3,0.1c0.3,0,0.7,0,1.4-0.1c-1.1,1.6-2.4,3.7-3.9,6.3c-1.6,2.5-3.5,6-5.7,10.5c-0.4-0.1-0.7-0.1-0.9-0.1
			c-0.2,0-0.5,0-1,0.1c-0.5-3.8-1.3-8.1-2.5-12.8c-1.5,2.6-2.8,4.9-3.9,6.9c-1.1,2-2,4-2.8,5.9c-0.4-0.1-0.7-0.1-0.9-0.1
			c-0.2,0-0.5,0-0.9,0.1C503,63.7,501.8,58.1,500.2,52.2z"/>
		<path fill="#DF2328" d="M528.8,55.9h-0.3c0.2-0.7,0.3-1.5,0.4-2.3c1.3-0.7,2.3-1.2,3.3-1.4c0.9-0.2,1.8-0.3,2.6-0.3
			c1.5,0,2.7,0.4,3.6,1.1c1,0.7,1.5,1.7,1.5,2.8c0,0.8-0.2,2.4-0.7,4.9c-0.5,2.5-0.7,4.2-0.7,5.1c0,1.1,0.4,1.6,1.1,1.6
			c0.3,0,0.7-0.1,1-0.3l0.3,0.8c-0.9,0.7-1.8,1-2.6,1c-0.6,0-1.2-0.2-1.6-0.5c-0.4-0.3-0.7-0.9-0.8-1.7c-1.2,1-2.2,1.7-3,2.1
			c-0.8,0.3-1.6,0.5-2.4,0.5c-1.3,0-2.4-0.3-3.3-1c-0.9-0.7-1.4-1.7-1.4-3c0-1.2,0.4-2.3,1.3-3.2c0.8-1,2.8-1.8,5.8-2.4
			c1.3-0.3,2.3-0.5,2.9-0.7c0.7-0.2,1-0.4,1.2-0.6c0.1-0.1,0.1-0.4,0.2-0.8c0.1-0.4,0.1-0.8,0.1-1.2c0-0.8-0.3-1.5-1-2.1
			c-0.7-0.5-1.5-0.8-2.5-0.8c-1,0-1.9,0.2-2.7,0.7C530.2,54.6,529.5,55.2,528.8,55.9z M536.8,60c-3.6,0.8-5.9,1.5-6.7,2.3
			c-0.9,0.7-1.3,1.6-1.3,2.7c0,0.8,0.3,1.5,0.8,2c0.5,0.5,1.2,0.7,2,0.7c0.7,0,1.4-0.2,2.1-0.5c0.7-0.4,1.5-1,2.3-1.9L536.8,60z"/>
		<path fill="#DF2328" d="M543.3,52.2c0.8,0.1,1.3,0.1,1.7,0.1c0.4,0,0.9,0,1.7-0.1c0,0.9,0.4,2.8,1.1,5.7c0.7,2.8,1.5,5.5,2.3,7.9
			c3.8-6.9,6-11.4,6.5-13.6c0.5,0.1,0.9,0.1,1.4,0.1c0.5,0,1,0,1.4-0.1c-0.8,1.4-2,3.5-3.5,6.1l-3.4,6.2c-1.7,3-3.1,5.5-4.1,7.5
			c-1,2-1.6,3.4-1.8,4.2c-0.6-0.1-1-0.1-1.3-0.1c-0.4,0-0.8,0-1.3,0.1c0.6-0.7,1.3-1.8,2.4-3.5c1-1.7,1.7-3,2.1-3.8
			c-0.9-3.5-2-7-3-10.4C544.3,54.8,543.6,52.8,543.3,52.2z"/>
		<path fill="#DF2328" d="M569.2,52.2c0.7,0.1,1.2,0.1,1.6,0.1c0.4,0,0.9,0,1.6-0.1c0,0.8,0.3,2.8,0.8,5.8c0.5,3,1,5.4,1.5,7.2
			c2.8-4.6,5-8.9,6.7-13c0.4,0.1,0.7,0.1,1,0.1c0.2,0,0.5,0,1-0.1c0.2,2,1,6.4,2.5,13.2c2.8-4.6,5.1-9,6.8-13.2
			c0.6,0.1,1,0.1,1.3,0.1c0.3,0,0.7,0,1.4-0.1c-1.1,1.6-2.4,3.7-3.9,6.3c-1.6,2.5-3.5,6-5.7,10.5c-0.4-0.1-0.7-0.1-0.9-0.1
			c-0.2,0-0.5,0-1,0.1c-0.5-3.8-1.3-8.1-2.5-12.8c-1.5,2.6-2.8,4.9-3.9,6.9c-1.1,2-2,4-2.8,5.9c-0.4-0.1-0.7-0.1-0.9-0.1
			c-0.2,0-0.5,0-0.9,0.1C572,63.7,570.8,58.1,569.2,52.2z"/>
		<path fill="#DF2328" d="M598.2,60.6c-0.1,0.9-0.2,1.6-0.2,2.1c0,1.5,0.5,2.8,1.5,3.8c1,1,2.2,1.5,3.8,1.5c0.8,0,1.6-0.2,2.4-0.5
			c0.9-0.3,1.6-0.9,2.3-1.8h0.4c-0.2,0.7-0.4,1.4-0.4,2.1c-1.9,1-3.7,1.5-5.4,1.5c-2.1,0-3.8-0.6-5.3-1.9c-1.4-1.3-2.2-3.2-2.2-5.7
			c0-2.7,0.8-5,2.3-6.9c1.6-1.9,3.7-2.9,6.4-2.9c1.9,0,3.4,0.5,4.6,1.6c1.2,1.1,1.7,2.5,1.7,4.3c0,1-0.1,2-0.3,3
			c-1.7-0.2-3.1-0.3-4.3-0.3H598.2z M598.3,59.2h8.8c0.1-0.8,0.2-1.4,0.2-2c0-1-0.3-1.9-1-2.8c-0.6-0.8-1.5-1.3-2.7-1.3
			c-1.2,0-2.4,0.5-3.3,1.6C599.3,55.8,598.6,57.3,598.3,59.2z"/>
		<path fill="#DF2328" d="M634.9,55.4c-1.2-1.5-2.6-2.3-4.4-2.3c-1.9,0-3.5,0.8-4.8,2.5c-1.3,1.6-1.9,3.6-1.9,5.9
			c0,2,0.5,3.6,1.6,4.7c1,1.1,2.3,1.7,3.9,1.7c0.8,0,1.6-0.2,2.6-0.5c0.9-0.4,1.8-0.9,2.5-1.7h0.4c-0.2,0.7-0.3,1.4-0.4,2.1
			c-1.9,1-3.7,1.5-5.3,1.5c-2.1,0-4-0.6-5.6-1.9c-1.6-1.3-2.4-3.2-2.4-5.8c0-2.6,0.9-4.9,2.6-6.9c1.8-1.9,4.2-2.9,7.5-2.9
			c0.9,0,1.7,0.1,2.4,0.2c0.8,0.1,1.7,0.4,2.9,0.9c-0.4,0.8-0.7,1.6-0.8,2.5H634.9z"/>
		<path fill="#DF2328" d="M639.7,55.9h-0.3c0.2-0.7,0.3-1.5,0.4-2.3c1.3-0.7,2.3-1.2,3.3-1.4c0.9-0.2,1.8-0.3,2.6-0.3
			c1.5,0,2.7,0.4,3.6,1.1c1,0.7,1.5,1.7,1.5,2.8c0,0.8-0.2,2.4-0.7,4.9c-0.5,2.5-0.7,4.2-0.7,5.1c0,1.1,0.4,1.6,1.1,1.6
			c0.3,0,0.7-0.1,1-0.3l0.3,0.8c-0.9,0.7-1.8,1-2.6,1c-0.6,0-1.2-0.2-1.6-0.5c-0.4-0.3-0.7-0.9-0.8-1.7c-1.2,1-2.2,1.7-3,2.1
			c-0.8,0.3-1.6,0.5-2.4,0.5c-1.3,0-2.4-0.3-3.3-1c-0.9-0.7-1.4-1.7-1.4-3c0-1.2,0.4-2.3,1.3-3.2c0.8-1,2.8-1.8,5.8-2.4
			c1.3-0.3,2.3-0.5,2.9-0.7c0.7-0.2,1-0.4,1.2-0.6c0.1-0.1,0.1-0.4,0.2-0.8c0.1-0.4,0.1-0.8,0.1-1.2c0-0.8-0.3-1.5-1-2.1
			c-0.7-0.5-1.5-0.8-2.5-0.8c-1,0-1.9,0.2-2.7,0.7C641.1,54.6,640.3,55.2,639.7,55.9z M647.7,60c-3.6,0.8-5.9,1.5-6.7,2.3
			c-0.9,0.7-1.3,1.6-1.3,2.7c0,0.8,0.3,1.5,0.8,2c0.5,0.5,1.2,0.7,2,0.7c0.7,0,1.4-0.2,2.1-0.5c0.7-0.4,1.5-1,2.3-1.9L647.7,60z"/>
		<path fill="#DF2328" d="M653.6,68.9c0.4-1.2,1-3.9,1.8-8.3c0.8-4.4,1.3-7.2,1.3-8.4c0.6,0.1,1.1,0.1,1.4,0.1c0.2,0,0.5,0,0.7,0
			c0.3,0,0.5,0,0.7-0.1c-0.4,1.1-0.7,2.3-1,3.8c2-2.7,3.7-4.1,5.4-4.1c0.2,0,0.4,0,0.5,0c-0.2,1.1-0.3,2-0.3,2.5
			c0,0.5,0.1,0.9,0.1,1c-0.8-0.4-1.4-0.6-1.9-0.6c-0.9,0-1.7,0.4-2.4,1.2c-0.7,0.8-1.2,2-1.6,3.5c-0.3,1.3-0.7,3-1,5
			c-0.3,2-0.5,3.5-0.5,4.4c-0.7-0.1-1.1-0.1-1.5-0.1c-0.3,0-0.6,0-0.9,0C654.1,68.9,653.8,68.9,653.6,68.9z"/>
		<path fill="#DF2328" d="M667.8,60.6c-0.1,0.9-0.2,1.6-0.2,2.1c0,1.5,0.5,2.8,1.5,3.8c1,1,2.2,1.5,3.8,1.5c0.8,0,1.6-0.2,2.4-0.5
			c0.9-0.3,1.6-0.9,2.3-1.8h0.4c-0.2,0.7-0.4,1.4-0.4,2.1c-1.9,1-3.7,1.5-5.4,1.5c-2.1,0-3.8-0.6-5.3-1.9c-1.4-1.3-2.2-3.2-2.2-5.7
			c0-2.7,0.8-5,2.3-6.9c1.6-1.9,3.7-2.9,6.4-2.9c1.9,0,3.4,0.5,4.6,1.6c1.2,1.1,1.7,2.5,1.7,4.3c0,1-0.1,2-0.3,3
			c-1.7-0.2-3.1-0.3-4.3-0.3H667.8z M667.9,59.2h8.8c0.1-0.8,0.2-1.4,0.2-2c0-1-0.3-1.9-1-2.8c-0.6-0.8-1.5-1.3-2.7-1.3
			c-1.2,0-2.4,0.5-3.3,1.6C668.9,55.8,668.2,57.3,667.9,59.2z"/>
	</g>
	<g>
		<path fill="#003594" d="M191.7,95.7L191.7,95.7c-0.1,1.6-0.2,2.6-0.2,3h1.5v0.9h-1.5c-0.1,1.6-0.1,2.8-0.1,3.7
			c0,0.3,0,0.7,0.1,1.2c0,0.5,0.1,0.9,0.2,1.2c0.1,0.2,0.3,0.3,0.7,0.3c0.1,0,0.3,0,0.6-0.1c0,0,0.1,0,0.1,0c0,0,0.1,0,0.1,0v0.7
			c-0.1,0-0.1,0.1-0.1,0.1c-0.7,0.2-1.2,0.3-1.7,0.3c-0.8,0-1.4-0.2-1.8-0.7c-0.3-0.5-0.5-1.1-0.5-2c0-0.6,0-1.5,0.1-2.7
			c0-0.2,0-0.6,0-1c0-0.4,0-0.8,0-1H188v-0.7v-0.2h1.2c0-0.2,0-0.6,0-1c0-0.5,0-0.8,0-1c0.6-0.2,1.4-0.6,2.3-1.1L191.7,95.7z
			 M184.4,105.6L184.4,105.6c-0.4,0.5-0.9,0.8-1.2,1.1c-0.4,0.2-0.8,0.3-1.4,0.3c-1,0-1.8-0.4-2.3-1.1c-0.3-0.4-0.5-1.1-0.5-2.1
			v-0.6c0-0.4,0-1.1,0-1.9c0-0.8,0-1.4,0-1.9c0-0.1,0-0.3,0-0.5c0-0.2,0-0.3,0-0.4c0.6,0,1.1,0,1.4,0c0.2,0,0.6,0,1.2,0
			c-0.1,1-0.2,2.6-0.2,4.6c0,0.7,0.1,1.2,0.2,1.4c0.2,0.6,0.6,0.9,1.2,0.9c0.7,0,1.1-0.3,1.2-0.9c0.2-0.6,0.3-1.3,0.3-2.2
			c0-0.4,0-1.1,0-1.9c0-0.9,0-1.5-0.1-1.9c0.6,0,1,0,1.2,0c0.3,0,0.7,0,1.2,0c-0.1,0.6-0.1,1.3-0.1,2c0,0.3,0,0.8,0,1.4
			c0,0.6,0,1.1,0,1.4v0.9c0,0.8,0,1.5,0.1,2.3l0,0.3c-0.1,0-0.4,0-0.6,0c-0.3,0-0.5,0-0.7,0c-0.1,0-0.3,0-0.5,0c-0.2,0-0.4,0-0.6,0
			L184.4,105.6z M177.1,106.9L177.1,106.9c-0.1,0-0.4,0-0.6,0c-0.3,0-0.5,0-0.6,0c-0.1,0-0.4,0-0.7,0c-0.3,0-0.5,0-0.6,0
			c0.1-0.9,0.1-2.2,0.1-4v-1.2v-2.1c0-0.3,0-0.8,0-1.4c0-0.6,0-1.1,0-1.4c0-0.4,0-1.1,0-2c0-0.1,0-0.2,0-0.4c0-0.2,0-0.3,0-0.4
			c0.4,0.1,0.8,0.1,1.3,0.1c0.5,0,1,0,1.3-0.1c0,0.1,0,0.2,0,0.4c0,0.2,0,0.3,0,0.4c0,0.2,0,0.5,0,0.9c0,0.4,0,0.7,0,0.9
			c0,0.3,0,0.8,0,1.4c0,0.6,0,1.1,0,1.4C177,102.2,177,104.8,177.1,106.9z M167.1,101.6L167.1,101.6c-0.1,0.4-0.1,0.8-0.1,1.3
			c0,2.3,0.5,3.4,1.6,3.4c0.4,0,0.8-0.2,1-0.5c0.2-0.3,0.4-0.7,0.5-1.2c0.1-0.6,0.2-1.4,0.2-2.3c0-0.2,0-0.5-0.1-0.9
			c-0.1-1.5-0.6-2.3-1.5-2.3c-0.5,0-0.9,0.2-1.2,0.7C167.3,100.4,167.1,101,167.1,101.6z M164.4,103L164.4,103
			c0-1.3,0.4-2.4,1.2-3.2c0.4-0.4,0.8-0.7,1.4-0.9c0.6-0.2,1.1-0.3,1.7-0.3c0.6,0,1.2,0.1,1.7,0.3c0.6,0.2,1,0.5,1.4,0.9
			c0.7,0.8,1.1,1.8,1.1,3c0,0.9-0.2,1.6-0.5,2.3c-0.3,0.7-0.8,1.2-1.5,1.6c-0.6,0.4-1.4,0.6-2.3,0.6c-0.8,0-1.6-0.2-2.2-0.5
			c-0.6-0.3-1.1-0.8-1.5-1.4C164.6,104.5,164.4,103.8,164.4,103z M162,97.4L162,97.4c-0.4-1-1-1.5-2-1.5c-0.6,0-1,0.1-1.4,0.5
			c-0.3,0.3-0.5,0.7-0.5,1.2c0,0.4,0.2,0.8,0.5,1c0.4,0.3,0.9,0.6,1.7,1c0.8,0.4,1.3,0.7,1.8,1c0.4,0.3,0.8,0.7,0.9,1.1
			c0.2,0.4,0.3,0.9,0.3,1.5c0,0.5-0.1,1.1-0.4,1.6c-0.3,0.7-1,1.3-1.8,1.7c-0.6,0.3-1.4,0.5-2.3,0.5c-1.1,0-2-0.2-2.8-0.7
			c0.3-0.9,0.4-1.6,0.5-2.2h0.3c0.1,0.6,0.4,1,0.8,1.3c0.4,0.3,0.9,0.5,1.5,0.5c0.6,0,1-0.1,1.4-0.4c0.4-0.3,0.6-0.7,0.6-1.3
			c0-0.5-0.2-0.9-0.6-1.3c-0.5-0.4-1.2-0.7-1.9-1.1c-0.2-0.1-0.5-0.3-0.8-0.5c-0.3-0.2-0.5-0.3-0.6-0.4c-0.4-0.2-0.7-0.6-0.9-1.1
			c-0.2-0.5-0.3-1-0.3-1.5c0-1.1,0.4-2,1.3-2.7c0.4-0.3,0.8-0.5,1.2-0.7c0.4-0.1,0.9-0.2,1.5-0.2c1,0,1.8,0.2,2.6,0.7
			c0,0,0,0.1,0.1,0.1c-0.2,0.5-0.4,1.1-0.5,1.7H162z M143.3,98L143.3,98l0,1.8c0.3-0.4,0.7-0.7,1.2-0.9c0.5-0.3,0.9-0.4,1.3-0.4
			c0.8,0,1.5,0.3,2,0.8c0.5,0.5,0.7,1.2,0.7,2.2v2.4v2.2v0.9c-0.1,0-0.3,0-0.6,0c-0.3,0-0.5,0-0.6,0c-0.1,0-0.3,0-0.6,0
			c-0.3,0-0.5,0-0.6,0c0-0.1,0-0.3,0-0.6c0-0.2,0-0.4,0-0.6l0.1-1.6c0-0.3,0.1-0.8,0.1-1.5c0-0.7,0-1.2-0.1-1.7
			c-0.1-0.3-0.2-0.5-0.5-0.7c-0.2-0.2-0.5-0.3-0.8-0.3c-0.6,0-1,0.3-1.2,0.8c-0.2,0.5-0.3,1.3-0.3,2.3c0,0.3,0,0.7,0,1.2
			c0,0.5,0,1,0,1.5c0,0.5,0,0.9,0,1.2c-0.1,0-0.3,0-0.6,0c-0.3,0-0.5,0-0.6,0c-0.1,0-0.3,0-0.6,0c-0.3,0-0.5,0-0.6,0
			c0-0.5,0.1-0.9,0.1-1.1l0.1-4.2c0-0.2,0-0.6,0-1c0-0.4,0-0.8,0-1c0-1.9-0.1-3.8-0.2-5.6c0.4,0.1,0.8,0.1,1.3,0.1
			c0.6,0,1,0,1.3-0.1L143.3,98z M139,101L139,101h-0.4c-0.1-0.5-0.3-0.9-0.6-1.2c-0.3-0.3-0.7-0.5-1.2-0.5c-0.7,0-1.2,0.3-1.6,1
			c-0.3,0.7-0.5,1.4-0.5,2.2c0,1.1,0.2,1.9,0.6,2.4c0.4,0.6,1.1,1,2,1c0.7,0,1.3-0.3,1.8-0.8l0.3,0.2l-0.4,1c-0.2,0.2-0.6,0.4-1,0.5
			c-0.5,0.1-0.9,0.2-1.3,0.2c-1.5,0-2.5-0.4-3.3-1.1c-0.8-0.8-1.2-1.8-1.2-3.1c0-0.9,0.2-1.7,0.6-2.3c0.4-0.7,0.9-1.2,1.6-1.6
			c0.7-0.4,1.5-0.5,2.4-0.5c1.2,0,2.2,0.3,3,0.8L139,101z M126,102.8L126,102.8c0,0.3,0,0.6,0.1,1c0,0.3,0.1,0.6,0.3,0.9
			c0.2,0.3,0.3,0.6,0.5,0.8c0.4,0.4,0.9,0.5,1.5,0.5c0.7,0,1.4-0.3,2-0.8l0.2,0.2l-0.4,1c-0.7,0.5-1.6,0.8-2.5,0.8
			c-0.7,0-1.4-0.1-1.9-0.3c-0.5-0.2-1-0.5-1.4-1c-0.7-0.7-1-1.8-1-3.2c0-0.8,0.2-1.5,0.5-2.1c0.3-0.6,0.8-1.1,1.4-1.5
			c0.6-0.4,1.3-0.5,2.1-0.5c0.8,0,1.5,0.2,2,0.5c0.5,0.3,0.9,0.8,1.2,1.3c0.3,0.6,0.4,1.2,0.4,2c0,0.2,0,0.4,0,0.6H126z M128.6,102
			L128.6,102c0,0,0-0.1,0-0.2c0-0.1,0-0.2,0-0.2c-0.1-1.6-0.4-2.4-1.2-2.4c-0.5,0-0.9,0.3-1.1,0.8c-0.2,0.5-0.3,1.2-0.3,2H128.6z
			 M119.4,97.7L119.4,97.7c0,0.5,0,1.2,0,2.1c0,1,0,1.7,0,2.1c0,0.2,0,0.6,0,1.1c0,0.5,0,0.9,0,1.1c0,0.3,0,0.8,0,1.4
			c0,0.6,0,1.1,0,1.4c-0.1,0-0.4,0-0.7,0c-0.3,0-0.6,0-0.7,0c-0.2,0-0.4,0-0.7,0c-0.3,0-0.5,0-0.7,0c0-0.3,0-0.7,0.1-1.2
			c0-0.5,0-0.9,0-1.2c0.1-2.5,0.1-4.4,0.1-5.8c0-0.5,0-1.2-0.1-2.2c-0.3,0-0.8,0-1.5,0.1c-0.6,0.1-1.2,0.1-1.7,0.2
			c0.1-0.2,0.1-0.4,0.1-0.7c0-0.3,0-0.5,0-0.6c0,0,0-0.1,0-0.1c0-0.1,0-0.1,0-0.1c0.6,0,1,0,1.3,0c1.2,0,2.3,0.1,3.1,0.1h1.8
			c0.3,0,0.7,0,1.3-0.1c0.6,0,1-0.1,1.4-0.1c-0.1,0.2-0.1,0.5-0.1,0.7c0,0.3,0,0.5,0.1,0.8c-1-0.2-2-0.2-3-0.2L119.4,97.7z
			 M106.8,102.8L106.8,102.8c0,2.1,0.5,3.2,1.5,3.2c0.6,0,1.1-0.4,1.3-1.1c0.2-0.7,0.4-1.5,0.4-2.3c0-0.8-0.1-1.5-0.3-2.1
			c-0.2-0.6-0.6-1-1.2-1c-0.6,0-1.1,0.3-1.3,1C106.9,101.3,106.8,102,106.8,102.8z M110.1,94L110.1,94c0.2,0,0.6,0.1,1,0.1
			c0.3,0,0.7,0,1.3-0.1c0,0.5,0,1.1-0.1,1.7c0,1.4-0.1,2.4-0.1,3.1c0,2.3-0.1,3.9-0.1,5.1c0,0.7,0,1.7,0.1,3.1l-0.2,0
			c-0.4,0-0.7-0.1-0.9-0.1c-0.1,0-0.3,0-0.6,0c-0.3,0-0.5,0-0.6,0c0.1-0.8,0.1-1.3,0.1-1.5c-0.5,1.1-1.3,1.7-2.4,1.7
			c-1.2,0-2-0.4-2.6-1.2c-0.5-0.8-0.8-1.8-0.8-3.1c0-1.1,0.3-2.1,0.8-3c0.3-0.4,0.6-0.7,1.1-1c0.5-0.3,0.9-0.4,1.4-0.4
			c1.1,0,1.9,0.4,2.3,1.2v-1.3c0-0.2,0-0.5,0-1c0-0.4,0-0.8,0-1c0-0.5,0-1.3-0.1-2.4H110.1z M98.3,102.8L98.3,102.8
			c0,0.3,0,0.6,0.1,1c0,0.3,0.1,0.6,0.3,0.9c0.2,0.3,0.3,0.6,0.5,0.8c0.4,0.4,0.9,0.5,1.5,0.5c0.7,0,1.4-0.3,2-0.8l0.2,0.2l-0.4,1
			c-0.7,0.5-1.6,0.8-2.5,0.8c-0.7,0-1.4-0.1-1.9-0.3c-0.5-0.2-1-0.5-1.4-1c-0.7-0.7-1-1.8-1-3.2c0-0.8,0.2-1.5,0.5-2.1
			c0.3-0.6,0.8-1.1,1.4-1.5c0.6-0.4,1.3-0.5,2.1-0.5c0.8,0,1.5,0.2,2,0.5c0.5,0.3,0.9,0.8,1.2,1.3c0.2,0.6,0.4,1.2,0.4,2
			c0,0.2,0,0.4,0,0.6H98.3z M101,102L101,102c0,0,0-0.1,0-0.2c0-0.1,0-0.2,0-0.2c-0.1-1.6-0.4-2.4-1.2-2.4c-0.5,0-0.9,0.3-1.1,0.8
			c-0.2,0.5-0.3,1.2-0.3,2H101z M82.3,95.1L82.3,95.1c0.1,0,0.2,0,0.3,0.1c0.2,0,0.3,0.1,0.4,0.1c0.1,0,0.4,0,0.7-0.1
			c1,2.1,2.3,4.8,4,8.1l1-2c1.2-2.2,2.1-4.3,3-6.2c0,0,0.1,0,0.1,0c0,0,0.1,0,0.1,0c0.6,0,1,0,1.3,0c0.2,1.6,0.5,4.3,0.9,8.1
			c0.1,0.4,0.2,1,0.3,1.8c0.1,0.8,0.2,1.2,0.2,1.2c0,0.1,0,0.2,0.1,0.4c0,0.2,0,0.3,0,0.4c-0.1,0-0.4,0-0.7,0c-0.3,0-0.6,0-0.7,0
			c-0.2,0-0.4,0-0.7,0c-0.3,0-0.5,0-0.7,0c0-1.2-0.1-2.4-0.3-3.8c-0.1-1.4-0.3-2.8-0.4-4.1c-1.9,3.9-3.2,6.6-3.8,7.9h-0.7l-1.3-2.7
			c-0.3-0.7-0.8-1.6-1.3-2.8c-0.6-1.1-0.9-1.9-1.1-2.2c-0.2,1.2-0.3,2.2-0.4,3c-0.1,0.7-0.1,1.4-0.2,1.9c-0.1,0.7-0.1,1.2-0.1,1.7
			c0,0.1,0,0.3,0,0.5c0,0.2,0,0.4,0,0.5c-0.3-0.1-0.5-0.1-0.8-0.1c-0.3,0-0.5,0-0.8,0.1c0-0.2,0-0.4,0.1-0.6
			c0.1-0.3,0.2-0.8,0.3-1.5c0.1-0.7,0.2-1.1,0.2-1.1c0.2-1,0.3-2.2,0.5-3.4L82.3,95.1z M67.7,102.8L67.7,102.8
			c0,2.1,0.5,3.2,1.5,3.2c0.6,0,1.1-0.4,1.3-1.1c0.2-0.7,0.4-1.5,0.4-2.3c0-0.8-0.1-1.5-0.3-2.1c-0.2-0.6-0.6-1-1.2-1
			c-0.6,0-1.1,0.3-1.3,1C67.8,101.3,67.7,102,67.7,102.8z M70.9,94L70.9,94c0.2,0,0.6,0.1,1,0.1c0.3,0,0.7,0,1.3-0.1
			c0,0.5,0,1.1-0.1,1.7c0,1.4-0.1,2.4-0.1,3.1c0,2.3-0.1,3.9-0.1,5.1c0,0.7,0,1.7,0.1,3.1l-0.2,0c-0.4,0-0.7-0.1-0.9-0.1
			c-0.1,0-0.3,0-0.6,0c-0.3,0-0.5,0-0.6,0c0.1-0.8,0.1-1.3,0.1-1.5c-0.5,1.1-1.3,1.7-2.4,1.7c-1.2,0-2-0.4-2.6-1.2
			c-0.5-0.8-0.8-1.8-0.8-3.1c0-1.1,0.3-2.1,0.8-3c0.3-0.4,0.6-0.7,1.1-1c0.5-0.3,0.9-0.4,1.4-0.4c1.1,0,1.8,0.4,2.3,1.2v-1.3
			c0-0.2,0-0.5,0-1c0-0.4,0-0.8,0-1c0-0.5,0-1.3-0.1-2.4H70.9z M59.1,102.8L59.1,102.8c0,0.3,0,0.6,0.1,1c0,0.3,0.1,0.6,0.3,0.9
			c0.2,0.3,0.3,0.6,0.5,0.8c0.4,0.4,0.9,0.5,1.5,0.5c0.7,0,1.4-0.3,2-0.8l0.2,0.2l-0.4,1c-0.7,0.5-1.6,0.8-2.5,0.8
			c-0.7,0-1.4-0.1-1.9-0.3c-0.5-0.2-1-0.5-1.4-1c-0.7-0.7-1-1.8-1-3.2c0-0.8,0.2-1.5,0.5-2.1c0.3-0.6,0.8-1.1,1.4-1.5
			c0.6-0.4,1.3-0.5,2.1-0.5c0.8,0,1.5,0.2,2,0.5c0.5,0.3,0.9,0.8,1.2,1.3c0.2,0.6,0.4,1.2,0.4,2c0,0.2,0,0.4,0,0.6H59.1z M61.8,102
			L61.8,102c0,0,0-0.1,0-0.2c0-0.1,0-0.2,0-0.2c-0.1-1.6-0.4-2.4-1.2-2.4c-0.5,0-0.9,0.3-1.1,0.8c-0.2,0.5-0.3,1.2-0.3,2H61.8z
			 M55,101L55,101h-0.4c-0.1-0.5-0.3-0.9-0.6-1.2c-0.3-0.3-0.7-0.5-1.2-0.5c-0.7,0-1.2,0.3-1.6,1c-0.3,0.7-0.5,1.4-0.5,2.2
			c0,1.1,0.2,1.9,0.6,2.4c0.4,0.6,1.1,1,2,1c0.7,0,1.3-0.3,1.8-0.8l0.3,0.2l-0.4,1c-0.2,0.2-0.6,0.4-1,0.5c-0.5,0.1-0.9,0.2-1.3,0.2
			c-1.5,0-2.6-0.4-3.3-1.1c-0.8-0.8-1.2-1.8-1.2-3.1c0-0.9,0.2-1.7,0.6-2.3c0.4-0.7,0.9-1.2,1.6-1.6c0.7-0.4,1.5-0.5,2.4-0.5
			c1.2,0,2.2,0.3,3,0.8L55,101z M38.8,98.7L38.8,98.7c0.6,0,1,0,1.3,0c0.2,0,0.6,0,1.1,0l-0.1,1.2c0.8-1,1.7-1.4,2.6-1.4
			c0.8,0,1.6,0.3,2.1,1c0.3,0.3,0.4,0.7,0.5,1c0.1,0.4,0.1,0.9,0.1,1.5v2.1v2.9c-0.2,0-0.4,0-0.7,0c-0.3,0-0.5,0-0.7,0
			c-0.1,0-0.3,0-0.6,0c-0.3,0-0.5,0-0.6,0c0-0.1,0-0.1,0-0.2c0-0.1,0-0.1,0-0.2c0-0.1,0-0.2,0-0.2c0-0.1,0-0.1,0-0.2
			c0-0.2,0-0.6,0-1c0-0.4,0-0.8,0-1c0-0.1,0-0.3,0-0.6c0-0.2,0-0.5,0-0.7c0-0.8-0.1-1.5-0.2-2c-0.2-0.5-0.6-0.8-1.2-0.8
			c-0.6,0-1,0.3-1.2,0.8c-0.2,0.5-0.3,1.3-0.3,2.3c0,0.3,0,0.7,0,1.2c0,0.5,0,1,0,1.5c0,0.5,0,0.9,0,1.2c-0.1,0-0.3,0-0.6,0
			c-0.3,0-0.5,0-0.6,0c-0.1,0-0.3,0-0.6,0c-0.3,0-0.5,0-0.6,0c0-0.1,0-0.2,0-0.4c0-0.2,0-0.4,0-0.5c0-0.2,0-0.6,0-1
			c0-0.4,0-0.8,0-1.1v-2v-0.7c0-0.3,0-0.7,0-1.1c0-0.4,0-0.8,0-1L38.8,98.7z M30.6,100.7L30.6,100.7l-0.2-1c0.4-0.4,0.9-0.6,1.4-0.8
			c0.6-0.2,1.1-0.3,1.7-0.3c0.8,0,1.6,0.2,2.2,0.6c0.6,0.4,1,1,1,1.7v1.1c0,0.4,0,0.8,0,1.3c0,0.5,0,0.9,0,1.2c0,0.4,0,0.8,0,1
			c0,0.4,0.2,0.6,0.4,0.7c0.2,0,0.4,0,0.5,0c0.1,0,0.1,0.1,0.1,0.3v0.2c-0.1,0.1-0.4,0.2-0.8,0.3c-0.3,0.1-0.6,0.1-0.7,0.1
			c-0.4,0-0.7-0.1-1-0.3c-0.3-0.2-0.5-0.5-0.7-0.9c-0.2,0.4-0.5,0.7-0.9,0.9c-0.4,0.2-0.8,0.3-1.3,0.3c-0.7,0-1.3-0.2-1.8-0.6
			c-0.5-0.4-0.7-0.9-0.7-1.7c0-0.4,0.1-0.8,0.3-1.1c0.2-0.3,0.4-0.6,0.8-0.8c0.4-0.2,1.1-0.5,2.1-0.7c0.6-0.1,1-0.3,1.2-0.4
			c0.1-0.1,0.2-0.3,0.2-0.7c0-0.4-0.2-0.7-0.5-1c-0.3-0.3-0.7-0.4-1.1-0.4c-0.7,0-1.3,0.3-1.9,0.8c0,0-0.1,0.1-0.2,0.2H30.6z
			 M32.2,104.6L32.2,104.6c0,0.9,0.3,1.3,0.9,1.3c0.8,0,1.3-0.6,1.3-1.8c0-0.7,0-1.3,0.1-1.6c-0.3,0.2-0.6,0.2-0.7,0.3
			c-0.1,0-0.2,0.1-0.4,0.1c-0.2,0.1-0.3,0.1-0.4,0.1c-0.1,0-0.2,0.1-0.3,0.2C32.3,103.5,32.2,104,32.2,104.6z M21.1,98.7L21.1,98.7
			c0.6,0,1,0,1.3,0c0.6,0,1,0,1.3-0.1l1.9,6c1-2.8,1.7-4.8,2.1-5.9c0.1,0,0.2,0,0.2,0c0.5,0,0.9,0,1.2,0c0,0,0,0.2-0.1,0.4
			c-0.1,0.2-0.4,0.9-0.9,2c-0.2,0.6-0.4,1-0.6,1.4c-0.1,0.4-0.3,0.8-0.6,1.5c-0.3,0.6-0.5,1.2-0.6,1.7c-0.2,0.5-0.3,0.9-0.4,1.2
			c-0.1,0-0.2,0-0.4,0c-0.2,0-0.3,0-0.5,0c-0.1,0-0.3,0-0.5,0c-0.2,0-0.4,0-0.5,0c-0.6-1.7-1.1-3.2-1.5-4.4
			c-0.4-1.2-0.9-2.4-1.4-3.7V98.7z M14.3,102.8L14.3,102.8c0,2.1,0.5,3.2,1.5,3.2c0.6,0,1.1-0.4,1.3-1.1c0.2-0.7,0.4-1.5,0.4-2.3
			c0-0.8-0.1-1.5-0.3-2.1c-0.2-0.6-0.6-1-1.2-1c-0.6,0-1.1,0.3-1.3,1C14.4,101.3,14.3,102,14.3,102.8z M17.5,94L17.5,94
			c0.2,0,0.6,0.1,1,0.1c0.3,0,0.7,0,1.3-0.1c0,0.5,0,1.1-0.1,1.7c0,1.4-0.1,2.4-0.1,3.1c0,2.3-0.1,3.9-0.1,5.1c0,0.7,0,1.7,0.1,3.1
			l-0.2,0c-0.4,0-0.7-0.1-0.9-0.1c-0.1,0-0.3,0-0.6,0c-0.3,0-0.5,0-0.6,0c0.1-0.8,0.1-1.3,0.1-1.5c-0.5,1.1-1.3,1.7-2.4,1.7
			c-1.2,0-2-0.4-2.6-1.2c-0.5-0.8-0.8-1.8-0.8-3.1c0-1.1,0.3-2.1,0.8-3c0.3-0.4,0.6-0.7,1.1-1c0.5-0.3,0.9-0.4,1.4-0.4
			c1.1,0,1.9,0.4,2.3,1.2v-1.3c0-0.2,0-0.5,0-1c0-0.4,0-0.8,0-1c0-0.5,0-1.3-0.1-2.4H17.5z M3.2,102.3L3.2,102.3h3.1
			c-0.4-1-0.9-2.4-1.5-4c-0.6,1.4-1.1,2.7-1.6,3.9L3.2,102.3z M0,106.7l1.3-2.9c1.5-3.4,2.7-6.3,3.6-8.8c0.1,0,0.1,0,0.2,0
			c0.1,0,0.2,0,0.2,0c0.1,0,0.2,0,0.2,0c0.1,0,0.2,0,0.3,0c0.1,0,0.2,0,0.3,0l0.1,0.3c1.4,3.7,2.9,7.5,4.5,11.2l0.1,0.2v0.2
			c-0.2,0-0.4,0-0.7,0c-0.3,0-0.6,0-0.7,0c-0.5,0-1,0-1.4,0.1c-0.5-1.6-0.9-2.7-1.2-3.5c-0.2,0-0.5,0-0.9,0c-0.4,0-0.7,0-1,0
			c-0.4,0-1.1,0-2.1,0.1l-0.1,0.2c-0.2,0.5-0.4,1.1-0.6,1.7c-0.2,0.6-0.4,1.1-0.5,1.6c-0.3-0.1-0.5-0.1-0.8-0.1
			c-0.3,0-0.5,0-0.8,0.1V106.7z"/>
		<path fill="#003594" d="M218.5,104.7L218.5,104.7c0.2,0.4,0.4,0.8,0.8,1c0.3,0.2,0.7,0.4,1.2,0.4c0.4,0,0.7-0.1,0.9-0.2
			c0.3-0.2,0.4-0.5,0.4-0.7c0-0.2-0.1-0.3-0.2-0.5c-0.1-0.1-0.3-0.3-0.5-0.4c-0.2-0.1-0.4-0.2-0.6-0.3c-0.2-0.1-0.4-0.2-0.5-0.2
			c-0.1-0.1-0.2-0.1-0.3-0.2c-0.1,0-0.2-0.1-0.2-0.1c-0.1,0-0.2-0.1-0.3-0.2c-0.4-0.2-0.7-0.5-0.9-0.9c-0.2-0.4-0.4-0.8-0.4-1.3
			c0-0.5,0.1-1,0.4-1.4c0.2-0.4,0.6-0.7,1.1-0.9c0.6-0.2,1.1-0.3,1.5-0.3c1,0,1.8,0.3,2.5,0.8c-0.1,0.5-0.3,1-0.4,1.5h-0.5
			c-0.1-0.4-0.3-0.7-0.6-1c-0.3-0.3-0.7-0.4-1-0.4c-0.4,0-0.7,0.1-0.9,0.2c-0.2,0.2-0.4,0.4-0.4,0.7c0,0.2,0,0.3,0.1,0.4
			c0.1,0.1,0.2,0.2,0.3,0.3c0.1,0.1,0.3,0.2,0.5,0.2c0.2,0.1,0.3,0.2,0.5,0.2c0.9,0.3,1.6,0.7,2,1c0.4,0.3,0.6,0.9,0.6,1.7
			c0,0.9-0.4,1.7-1.2,2.2c-0.6,0.4-1.3,0.6-2.1,0.6c-0.9,0-1.7-0.2-2.4-0.7c0.1-0.5,0.2-1,0.3-1.6H218.5z M208.6,98.7L208.6,98.7
			c0.6,0,1,0,1.3,0c0.2,0,0.6,0,1.1,0l-0.1,1.2c0.8-1,1.7-1.4,2.6-1.4c0.8,0,1.6,0.3,2.1,1c0.3,0.3,0.4,0.7,0.5,1
			c0.1,0.4,0.1,0.9,0.1,1.5v2.1v2.9c-0.2,0-0.4,0-0.7,0c-0.3,0-0.5,0-0.7,0c-0.1,0-0.3,0-0.6,0c-0.3,0-0.5,0-0.6,0
			c0-0.1,0-0.1,0-0.2c0-0.1,0-0.1,0-0.2c0-0.1,0-0.2,0-0.2c0-0.1,0-0.1,0-0.2c0-0.2,0-0.6,0-1c0-0.4,0-0.8,0-1c0-0.1,0-0.3,0-0.6
			c0-0.2,0-0.5,0-0.7c0-0.8-0.1-1.5-0.2-2c-0.2-0.5-0.6-0.8-1.2-0.8c-0.6,0-1,0.3-1.2,0.8c-0.2,0.5-0.3,1.3-0.3,2.3
			c0,0.3,0,0.7,0,1.2c0,0.5,0,1,0,1.5c0,0.5,0,0.9,0,1.2c-0.1,0-0.3,0-0.6,0c-0.3,0-0.5,0-0.6,0c-0.1,0-0.3,0-0.6,0
			c-0.3,0-0.5,0-0.6,0c0-0.1,0-0.2,0-0.4c0-0.2,0-0.4,0-0.5c0-0.2,0-0.6,0-1c0-0.4,0-0.8,0-1.1v-2v-0.7c0-0.3,0-0.7,0-1.1
			c0-0.4,0-0.8,0-1L208.6,98.7z M201.4,101.6L201.4,101.6c-0.1,0.4-0.1,0.8-0.1,1.3c0,2.3,0.5,3.4,1.6,3.4c0.4,0,0.8-0.2,1-0.5
			c0.2-0.3,0.4-0.7,0.5-1.2c0.1-0.6,0.2-1.4,0.2-2.3c0-0.2,0-0.5-0.1-0.9c-0.1-1.5-0.6-2.3-1.5-2.3c-0.5,0-0.9,0.2-1.2,0.7
			C201.6,100.4,201.4,101,201.4,101.6z M198.7,103L198.7,103c0-1.3,0.4-2.4,1.2-3.2c0.4-0.4,0.8-0.7,1.4-0.9
			c0.6-0.2,1.1-0.3,1.7-0.3c0.6,0,1.2,0.1,1.7,0.3c0.6,0.2,1,0.5,1.4,0.9c0.7,0.8,1.1,1.8,1.1,3c0,0.9-0.2,1.6-0.5,2.3
			c-0.3,0.7-0.8,1.2-1.5,1.6c-0.6,0.4-1.4,0.6-2.3,0.6c-0.8,0-1.6-0.2-2.2-0.5c-0.6-0.3-1.1-0.8-1.5-1.4
			C198.9,104.5,198.7,103.8,198.7,103z M195.9,94.1L195.9,94.1c0.4,0,0.7,0.1,1,0.4c0.3,0.3,0.4,0.6,0.4,1c0,0.4-0.1,0.7-0.4,1
			c-0.3,0.3-0.6,0.4-1,0.4c-0.4,0-0.7-0.1-0.9-0.4c-0.3-0.3-0.4-0.6-0.4-0.9c0-0.4,0.1-0.7,0.4-0.9
			C195.2,94.3,195.5,94.1,195.9,94.1z M194.6,105.7c0-0.2,0-0.5,0-0.8c0-0.4,0-0.6,0-0.8c0-1.3,0.1-2.2,0.1-2.6c0-0.4,0-0.9,0-1.5
			c0-0.6,0-1-0.1-1.3h0.1c0.3,0,0.7,0,1.2,0c0.3,0,0.7,0,1.2,0l-0.1,2.2c-0.1,0.7-0.1,1.8-0.1,3.3c0,1,0,1.9,0.1,2.7
			c-0.1,0-0.4,0-0.7,0c-0.3,0-0.6,0-0.7,0c-0.1,0-0.3,0-0.6,0c-0.3,0-0.5,0-0.6,0L194.6,105.7z"/>
		<path fill="#003594" d="M220.4,42.3L220.4,42.3c-1.5-4-4.3-6-8.2-6c-2.4,0-4.3,0.6-5.7,1.9c-1.4,1.3-2.1,2.9-2.1,4.9
			c0,1.7,0.7,3.1,2.2,4.3c1.5,1.2,3.7,2.6,6.9,4.3c3.1,1.6,5.6,3.1,7.4,4.3c1.8,1.3,3.1,2.8,3.9,4.6c0.8,1.7,1.2,3.8,1.2,6.3
			c0,2.2-0.5,4.4-1.6,6.7c-1.4,2.9-4,5.2-7.6,6.9c-2.6,1.3-5.8,1.9-9.6,1.9c-4.4,0-8.3-1-11.5-3c1-3.6,1.7-6.6,2.1-9h1.3
			c0.5,2.4,1.7,4.3,3.5,5.6c1.8,1.3,3.9,2,6.4,2c2.3,0,4.3-0.6,5.9-1.9c1.6-1.2,2.4-3,2.4-5.3c0-2-0.9-3.8-2.6-5.5
			c-2.3-1.6-4.9-3.1-8-4.5c-0.9-0.5-1.9-1.1-3.2-1.9c-1.3-0.8-2.1-1.4-2.5-1.6c-1.6-1-2.8-2.5-3.6-4.5c-0.8-2-1.2-4.1-1.2-6.2
			c0-4.6,1.8-8.3,5.4-11.2c1.6-1.3,3.3-2.3,5-2.8c1.7-0.5,3.7-0.7,6.1-0.7c4.1,0,7.7,1,10.6,2.8c0.1,0.1,0.2,0.3,0.5,0.5
			c-0.7,2.2-1.5,4.6-2.2,7H220.4z M139.2,32.7L139.2,32.7c0.2,0,0.7,0.1,1.3,0.2c0.6,0.1,1.1,0.2,1.5,0.2c0.6,0,1.6-0.1,3-0.4
			c4,8.8,9.4,20,16.4,33.7l4.2-8.2c4.8-9.2,8.9-17.7,12.4-25.5c0.1,0,0.2,0.1,0.4,0.1c0.2,0,0.3,0.1,0.3,0.1c2.4,0,4.2-0.1,5.4-0.2
			c0.7,6.6,2,17.7,3.8,33.4c0.3,1.8,0.6,4.2,1.1,7.4c0.4,3.1,0.7,4.8,0.7,5c0,0.3,0.1,0.8,0.2,1.5c0.1,0.7,0.2,1.2,0.2,1.5
			c-0.5,0-1.5-0.1-2.8-0.2c-1.3-0.1-2.3-0.1-3-0.1c-0.6,0-1.6,0.1-2.8,0.1c-1.3,0.1-2.3,0.1-3,0.2c-0.2-4.8-0.6-10.1-1.2-15.9
			c-0.6-5.8-1.2-11.5-1.8-16.9c-8,16.3-13.2,27.3-15.8,32.9H157L151.5,70c-1.4-3-3.2-6.8-5.6-11.5c-2.3-4.7-3.8-7.7-4.5-9.1
			c-0.7,5-1.2,9.2-1.6,12.6c-0.3,3-0.5,5.7-0.6,8c-0.3,2.8-0.5,5.1-0.6,7c0,0.5-0.1,1.2-0.1,2.2c0,1-0.1,1.7-0.1,2.2
			c-1.1-0.2-2.2-0.3-3.4-0.3c-1.1,0-2.2,0.1-3.3,0.3c0-0.9,0.2-1.8,0.6-2.6c0.3-1.3,0.6-3.4,1.1-6.3c0.5-2.9,0.7-4.4,0.7-4.6
			c0.7-4.3,1.4-9,2-13.9L139.2,32.7z M96.1,62.6L96.1,62.6h13.1c-1.6-4.3-3.7-9.9-6.4-16.6c-2.5,5.8-4.7,11.1-6.4,16L96.1,62.6z
			 M82.7,80.9L88,68.7c6.1-13.9,11-26,14.8-36.4c0.3,0,0.5,0.1,0.9,0.1c0.3,0.1,0.7,0.1,1,0.1c0.3,0.1,0.6,0.1,0.9,0.1
			c0.4,0,0.8,0,1.3-0.1c0.5-0.1,0.9-0.1,1.3-0.2l0.6,1.2c5.9,15.5,12.1,30.9,18.6,46.4l0.4,0.7v0.7c-0.7,0-1.7-0.1-3-0.2
			c-1.3-0.1-2.4-0.1-3.1-0.1c-2,0-4,0.1-5.9,0.3c-2-6.5-3.7-11.4-4.9-14.6c-0.9,0-2.2,0-3.9-0.1c-1.8-0.1-3.1-0.1-4-0.1
			c-1.8,0-4.7,0.1-8.6,0.2l-0.3,1c-0.8,2.2-1.6,4.5-2.5,6.9c-0.9,2.4-1.5,4.6-2,6.7c-1.1-0.2-2.2-0.3-3.4-0.3
			c-1.1,0-2.2,0.1-3.3,0.3V80.9z"/>
		<path id="XMLID_3_" fill="#E01F26" d="M20.6,80.6l-11.6,0c-6.1,0-10.7-3.2-7.1-9.4c0.4-0.7,0.9-1.4,1.3-2.1c2.9-4.1,7-7.5,11-10.9
			c9.4-8,17.7-13.8,26.1-19.9c0.2-0.1,0.4-0.3,0.6-0.4c3.8-2.6,12.1-5.8,16-1.6c0.9,1,0.7,2.8-0.1,4c-0.6,0.9-1.7,1.7-2.6,2.3
			c-7.4,5.4-22.5,16.6-28.8,22.8c-3.8,3.7-6,8.2-5.7,11.1C19.7,78.3,20.2,79.9,20.6,80.6"/>
		<path id="XMLID_2_" fill="#E01F26" d="M79.4,48.9c-1,7.8-1.7,15.4-8,21.8C67.3,75,61.2,77.5,54.5,79c-5.4,1.2-10.7,1.7-16.5,1.7
			c-3.9,0-2.8,0-6.9,0c-1.6,0-2.8,0-4.2-0.2c-2.9-0.4-4-1.4-4.2-3.9c-0.2-2.9,2.1-7.2,6.1-11c0.7-0.7,1.4-1.3,2.2-2
			c1.4-1.2,1.8-1.6,3.8-1.6c2.7,0.1,5.5,0.3,8.2,0.3l8.7,0.1C63,62.2,74.5,57.4,79.4,48.9"/>
		<path id="XMLID_1_" fill="#E01F26" d="M46.9,33.4c8.3-6,16.5-12.4,26.2-16.1c2-0.7,4.5-1.2,6.6-0.8c2,0.5,3,2,3.3,3.6
			c0.2,2.5,0.1,4.4-0.3,6.9c-0.6,4.5-1.1,7.8-1.8,12.3c-0.7,4.5-2.8,8.6-5.7,11.5c-3.8,3.7-10.5,6.8-15.9,8
			c-2.8,0.6-2.1-1.9-1.5-3.4c0.4-1.3,0.8-2.4,1.2-3.9c0.8-2.8,2.5-9.3,1.5-13.8c-0.9-4-3.3-5.1-6.9-5.3
			C50.9,32.2,48.6,32.9,46.9,33.4"/>
	</g>
	<line fill="none" stroke="#595A5C" stroke-width="1.5774" stroke-miterlimit="10" x1="256.4" y1="0" x2="256.4" y2="116.8"/>
</g>
</svg>
